<?xml version="1.0" encoding="UTF-8" standalone="no"?>
<svg
   xmlns="http://www.w3.org/2000/svg"
   width="512"
   height="512"
   viewBox="0 0 512 512"
   version="1.1">
  <circle
     style="fill:#0077b6;fill-opacity:1;stroke:none;stroke-width:10"
     cx="256"
     cy="256"
     r="256" />
  <path
     style="fill:#ffffff;fill-opacity:1;stroke:none;stroke-width:10"
     d="M 256,96 C 209.6,96 166.4,106 128,128 c -38.4,22 -70.4,54 -92.4,92.4 l 46.2,26.6 c 17.2-29.8 41.2-54 70.8-70.8 29.6-17 63.6-25.6 99.4-24 35.8,1.6 69,13 97.2,32.8 28.2,19.8 49.8,47.6 61.6,79 l 50.6-16.8 C 445.2,198.4 415.4,158 375.8,131.2 336.2,104.4 287.8,96 256,96 Z" />
  <path
     style="fill:#ffffff;fill-opacity:1;stroke:none;stroke-width:10"
     d="m 128,384 c 17.2,29.8 41.2,54 70.8,70.8 29.6,17 63.6,25.6 99.4,24 35.8,-1.6 69,-13 97.2,-32.8 28.2,-19.8 49.8,-47.6 61.6,-79 L 407.4,350.2 C 390.2,380 366.2,404.2 336.6,421 307,438 273,446.6 237.2,445 201.4,443.4 168.2,432 140,412.2 111.8,392.4 90.2,364.6 78.4,333.2 L 128,384 Z" />
  <g>
    <path
       style="fill:#ffffff;fill-opacity:1;stroke:none;stroke-width:10"
       d="m 180,180 v 150 h 60 v -60 h 90 v 60 h 60 V 180 H 330 v 60 h -90 v -60 z" />
  </g>
</svg> 